<svg width="94" height="94" viewBox="0 0 94 94" fill="none" xmlns="http://www.w3.org/2000/svg">
<g filter="url(#filter0_d_405_3907)">
<rect x="7" y="7" width="80" height="80" rx="40" fill="white"/>
<rect x="5.5" y="5.5" width="83" height="83" rx="41.5" stroke="white" stroke-width="3"/>
<circle cx="47" cy="47" r="40" fill="#FF7A00"/>
<path d="M29.0496 56.4763H26.5567L33.7669 36.84H36.2215L43.4317 56.4763H40.9388L35.0709 39.9465H34.9175L29.0496 56.4763ZM29.9701 48.8059H40.0184V50.9152H29.9701V48.8059ZM46.4903 36.84H49.3284L56.0017 53.1397H56.2318L62.9051 36.84H65.7431V56.4763H63.5187V41.5573H63.327L57.1906 56.4763H55.0429L48.9065 41.5573H48.7147V56.4763H46.4903V36.84Z" fill="white"/>
</g>
<defs>
<filter id="filter0_d_405_3907" x="0" y="0" width="94" height="94" filterUnits="userSpaceOnUse" color-interpolation-filters="sRGB">
<feFlood flood-opacity="0" result="BackgroundImageFix"/>
<feColorMatrix in="SourceAlpha" type="matrix" values="0 0 0 0 0 0 0 0 0 0 0 0 0 0 0 0 0 0 127 0" result="hardAlpha"/>
<feOffset/>
<feGaussianBlur stdDeviation="2"/>
<feColorMatrix type="matrix" values="0 0 0 0 0 0 0 0 0 0 0 0 0 0 0 0 0 0 0.1 0"/>
<feBlend mode="normal" in2="BackgroundImageFix" result="effect1_dropShadow_405_3907"/>
<feBlend mode="normal" in="SourceGraphic" in2="effect1_dropShadow_405_3907" result="shape"/>
</filter>
</defs>
</svg>
