<svg width="134" height="134" viewBox="0 0 134 134" fill="none" xmlns="http://www.w3.org/2000/svg">
<g filter="url(#filter0_d_597_3744)">
<rect x="7" y="7" width="120" height="120" rx="60" fill="white"/>
<rect x="5.5" y="5.5" width="123" height="123" rx="61.5" stroke="white" stroke-width="3"/>
<circle cx="67" cy="67" r="60" fill="#D1D1D1"/>
<mask id="mask0_597_3744" style="mask-type:alpha" maskUnits="userSpaceOnUse" x="35" y="35" width="64" height="64">
<rect x="35" y="35" width="64" height="64" fill="#D9D9D9"/>
</mask>
<g mask="url(#mask0_597_3744)">
<path d="M66.9993 66.9998C64.066 66.9998 61.5549 65.9554 59.466 63.8665C57.3771 61.7776 56.3327 59.2665 56.3327 56.3332C56.3327 53.3998 57.3771 50.8887 59.466 48.7998C61.5549 46.7109 64.066 45.6665 66.9993 45.6665C69.9327 45.6665 72.4438 46.7109 74.5327 48.7998C76.6216 50.8887 77.666 53.3998 77.666 56.3332C77.666 59.2665 76.6216 61.7776 74.5327 63.8665C72.4438 65.9554 69.9327 66.9998 66.9993 66.9998ZM82.9994 88.3332H50.9993C49.5327 88.3332 48.2771 87.811 47.2327 86.7665C46.1882 85.7221 45.666 84.4665 45.666 82.9998V80.8665C45.666 79.3554 46.0549 77.9665 46.8327 76.6998C47.6105 75.4332 48.6438 74.4665 49.9327 73.7998C52.6882 72.4221 55.4882 71.3887 58.3327 70.6998C61.1771 70.0109 64.066 69.6665 66.9993 69.6665C69.9327 69.6665 72.8216 70.0109 75.666 70.6998C78.5105 71.3887 81.3105 72.4221 84.066 73.7998C85.3549 74.4665 86.3882 75.4332 87.166 76.6998C87.9438 77.9665 88.3327 79.3554 88.3327 80.8665V82.9998C88.3327 84.4665 87.8105 85.7221 86.766 86.7665C85.7216 87.811 84.466 88.3332 82.9994 88.3332ZM50.9993 82.9998H82.9994V80.8665C82.9994 80.3776 82.8771 79.9332 82.6327 79.5332C82.3882 79.1332 82.066 78.8221 81.666 78.5998C79.266 77.3998 76.8438 76.4998 74.3994 75.8998C71.9549 75.2998 69.4882 74.9998 66.9993 74.9998C64.5105 74.9998 62.0438 75.2998 59.5993 75.8998C57.1549 76.4998 54.7327 77.3998 52.3327 78.5998C51.9327 78.8221 51.6105 79.1332 51.366 79.5332C51.1216 79.9332 50.9993 80.3776 50.9993 80.8665V82.9998ZM66.9993 61.6665C68.466 61.6665 69.7216 61.1443 70.766 60.0998C71.8105 59.0554 72.3327 57.7998 72.3327 56.3332C72.3327 54.8665 71.8105 53.6109 70.766 52.5665C69.7216 51.5221 68.466 50.9998 66.9993 50.9998C65.5327 50.9998 64.2771 51.5221 63.2327 52.5665C62.1882 53.6109 61.666 54.8665 61.666 56.3332C61.666 57.7998 62.1882 59.0554 63.2327 60.0998C64.2771 61.1443 65.5327 61.6665 66.9993 61.6665Z" fill="white"/>
</g>
</g>
<defs>
<filter id="filter0_d_597_3744" x="0" y="0" width="134" height="134" filterUnits="userSpaceOnUse" color-interpolation-filters="sRGB">
<feFlood flood-opacity="0" result="BackgroundImageFix"/>
<feColorMatrix in="SourceAlpha" type="matrix" values="0 0 0 0 0 0 0 0 0 0 0 0 0 0 0 0 0 0 127 0" result="hardAlpha"/>
<feOffset/>
<feGaussianBlur stdDeviation="2"/>
<feColorMatrix type="matrix" values="0 0 0 0 0 0 0 0 0 0 0 0 0 0 0 0 0 0 0.1 0"/>
<feBlend mode="normal" in2="BackgroundImageFix" result="effect1_dropShadow_597_3744"/>
<feBlend mode="normal" in="SourceGraphic" in2="effect1_dropShadow_597_3744" result="shape"/>
</filter>
</defs>
</svg>
