<svg width="14" height="14" viewBox="0 0 14 14" fill="none" xmlns="http://www.w3.org/2000/svg">
<path d="M6.00098 8H1.00098C0.717643 8 0.480143 7.90417 0.288477 7.7125C0.0968099 7.52083 0.000976562 7.28333 0.000976562 7C0.000976562 6.71667 0.0968099 6.47917 0.288477 6.2875C0.480143 6.09583 0.717643 6 1.00098 6H6.00098V1C6.00098 0.716667 6.09681 0.479167 6.28848 0.2875C6.48014 0.0958333 6.71764 0 7.00098 0C7.28431 0 7.52181 0.0958333 7.71348 0.2875C7.90514 0.479167 8.00098 0.716667 8.00098 1V6H13.001C13.2843 6 13.5218 6.09583 13.7135 6.2875C13.9051 6.47917 14.001 6.71667 14.001 7C14.001 7.28333 13.9051 7.52083 13.7135 7.7125C13.5218 7.90417 13.2843 8 13.001 8H8.00098V13C8.00098 13.2833 7.90514 13.5208 7.71348 13.7125C7.52181 13.9042 7.28431 14 7.00098 14C6.71764 14 6.48014 13.9042 6.28848 13.7125C6.09681 13.5208 6.00098 13.2833 6.00098 13V8Z" fill="#2A3647"/>
</svg>
