<svg width="8" height="5" viewBox="0 0 8 5" fill="none" xmlns="http://www.w3.org/2000/svg">
<path d="M4.70002 0.299975L7.30002 2.89998C7.61669 3.21664 7.68752 3.57914 7.51252 3.98748C7.33752 4.39581 7.02502 4.59998 6.57502 4.59998L1.42502 4.59998C0.975025 4.59998 0.662525 4.39581 0.487525 3.98748C0.312525 3.57914 0.383358 3.21664 0.700025 2.89998L3.30002 0.299975C3.40002 0.199975 3.50836 0.124976 3.62502 0.0749755C3.74169 0.0249753 3.86669 -2.43187e-05 4.00002 -2.43187e-05C4.13336 -2.43187e-05 4.25836 0.0249753 4.37502 0.0749755C4.49169 0.124976 4.60002 0.199975 4.70002 0.299975Z" fill="#2A3647"/>
</svg>
