<svg width="24" height="25" viewBox="0 0 24 25" fill="none" xmlns="http://www.w3.org/2000/svg">
<mask id="mask0_86_3567" style="mask-type:alpha" maskUnits="userSpaceOnUse" x="0" y="0" width="24" height="25">
<rect y="0.5" width="24" height="24" fill="#D9D9D9"/>
</mask>
<g mask="url(#mask0_86_3567)">
<path d="M9.54972 15.65L18.0247 7.175C18.2247 6.975 18.4622 6.875 18.7372 6.875C19.0122 6.875 19.2497 6.975 19.4497 7.175C19.6497 7.375 19.7497 7.6125 19.7497 7.8875C19.7497 8.1625 19.6497 8.4 19.4497 8.6L10.2497 17.8C10.0497 18 9.81639 18.1 9.54972 18.1C9.28305 18.1 9.04972 18 8.84972 17.8L4.54972 13.5C4.34972 13.3 4.25389 13.0625 4.26222 12.7875C4.27055 12.5125 4.37472 12.275 4.57472 12.075C4.77472 11.875 5.01222 11.775 5.28722 11.775C5.56222 11.775 5.79972 11.875 5.99972 12.075L9.54972 15.65Z" fill="white"/>
</g>
</svg>
