<svg width="16" height="12" viewBox="0 0 16 12" fill="none" xmlns="http://www.w3.org/2000/svg">
<path d="M5.55118 9.15L14.0262 0.675C14.2262 0.475 14.4637 0.375 14.7387 0.375C15.0137 0.375 15.2512 0.475 15.4512 0.675C15.6512 0.875 15.7512 1.1125 15.7512 1.3875C15.7512 1.6625 15.6512 1.9 15.4512 2.1L6.25118 11.3C6.05118 11.5 5.81785 11.6 5.55118 11.6C5.28452 11.6 5.05118 11.5 4.85118 11.3L0.551184 7C0.351184 6.8 0.25535 6.5625 0.263684 6.2875C0.272017 6.0125 0.376184 5.775 0.576184 5.575C0.776184 5.375 1.01368 5.275 1.28868 5.275C1.56368 5.275 1.80118 5.375 2.00118 5.575L5.55118 9.15Z" fill="#2A3647"/>
</svg>
