<svg width="30" height="31" viewBox="0 0 30 31" fill="none" xmlns="http://www.w3.org/2000/svg">
<mask id="mask0_69323_5230" style="mask-type:alpha" maskUnits="userSpaceOnUse" x="0" y="0" width="30" height="31">
<rect y="0.96582" width="30" height="30" fill="#D9D9D9"/>
</mask>
<g mask="url(#mask0_69323_5230)">
<path d="M15 23.4658C13.8333 23.4658 12.7188 23.6481 11.6563 24.0127C10.5938 24.3773 9.625 24.9242 8.75 25.6533V25.9658H21.25V25.6533C20.375 24.9242 19.4062 24.3773 18.3438 24.0127C17.2812 23.6481 16.1667 23.4658 15 23.4658ZM6.25 24.5283C7.375 23.4242 8.68229 22.5544 10.1719 21.9189C11.6615 21.2835 13.2708 20.9658 15 20.9658C16.7292 20.9658 18.3385 21.2835 19.8281 21.9189C21.3177 22.5544 22.625 23.4242 23.75 24.5283V8.46582H6.25V24.5283ZM15 18.4658C13.7917 18.4658 12.7604 18.0387 11.9062 17.1846C11.0521 16.3304 10.625 15.2992 10.625 14.0908C10.625 12.8825 11.0521 11.8512 11.9062 10.9971C12.7604 10.1429 13.7917 9.71582 15 9.71582C16.2083 9.71582 17.2396 10.1429 18.0938 10.9971C18.9479 11.8512 19.375 12.8825 19.375 14.0908C19.375 15.2992 18.9479 16.3304 18.0938 17.1846C17.2396 18.0387 16.2083 18.4658 15 18.4658ZM15 15.9658C15.5208 15.9658 15.9635 15.7835 16.3281 15.4189C16.6927 15.0544 16.875 14.6117 16.875 14.0908C16.875 13.57 16.6927 13.1273 16.3281 12.7627C15.9635 12.3981 15.5208 12.2158 15 12.2158C14.4792 12.2158 14.0365 12.3981 13.6719 12.7627C13.3073 13.1273 13.125 13.57 13.125 14.0908C13.125 14.6117 13.3073 15.0544 13.6719 15.4189C14.0365 15.7835 14.4792 15.9658 15 15.9658ZM6.25 28.4658C5.5625 28.4658 4.97396 28.221 4.48438 27.7314C3.99479 27.2419 3.75 26.6533 3.75 25.9658V8.46582C3.75 7.77832 3.99479 7.18978 4.48438 6.7002C4.97396 6.21061 5.5625 5.96582 6.25 5.96582H7.5V3.46582H10V5.96582H20V3.46582H22.5V5.96582H23.75C24.4375 5.96582 25.026 6.21061 25.5156 6.7002C26.0052 7.18978 26.25 7.77832 26.25 8.46582V25.9658C26.25 26.6533 26.0052 27.2419 25.5156 27.7314C25.026 28.221 24.4375 28.4658 23.75 28.4658H6.25Z" fill="#CDCDCD"/>
</g>
</svg>
