<svg width="30" height="22" viewBox="0 0 30 22" fill="none" xmlns="http://www.w3.org/2000/svg">
<path d="M24.3291 13.6667C24.0132 13.6667 23.7497 13.5602 23.5386 13.3473C23.3275 13.1343 23.2219 12.8704 23.2219 12.5556V9.44448H20.1108C19.796 9.44448 19.5321 9.33763 19.3191 9.12392C19.1062 8.9102 18.9997 8.64539 18.9997 8.32948C18.9997 8.01357 19.1062 7.75006 19.3191 7.53895C19.5321 7.32784 19.796 7.22228 20.1108 7.22228H23.2219V4.11115C23.2219 3.79635 23.3288 3.53246 23.5425 3.31948C23.7562 3.10653 24.021 3.00005 24.3369 3.00005C24.6528 3.00005 24.9163 3.10653 25.1274 3.31948C25.3386 3.53246 25.4441 3.79635 25.4441 4.11115V7.22228H28.5552C28.87 7.22228 29.1339 7.32914 29.3469 7.54285C29.5599 7.75656 29.6663 8.02137 29.6663 8.33728C29.6663 8.65319 29.5599 8.91671 29.3469 9.12782C29.1339 9.33893 28.87 9.44448 28.5552 9.44448H25.4441V12.5556C25.4441 12.8704 25.3373 13.1343 25.1235 13.3473C24.9098 13.5602 24.645 13.6667 24.3291 13.6667ZM10.9997 10.9778C9.53301 10.9778 8.31449 10.4926 7.34411 9.52228C6.37375 8.5519 5.88858 7.33338 5.88858 5.86672C5.88858 4.40005 6.37375 3.18154 7.34411 2.21118C8.31449 1.2408 9.53301 0.755615 10.9997 0.755615C12.4663 0.755615 13.6849 1.2408 14.6552 2.21118C15.6256 3.18154 16.1108 4.40005 16.1108 5.86672C16.1108 7.33338 15.6256 8.5519 14.6552 9.52228C13.6849 10.4926 12.4663 10.9778 10.9997 10.9778ZM1.44411 21.6667C1.12931 21.6667 0.865419 21.5602 0.652441 21.3473C0.439486 21.1343 0.333008 20.8704 0.333008 20.5556V18.3334C0.333008 17.563 0.531152 16.8612 0.927441 16.2279C1.32375 15.5945 1.86635 15.1186 2.55524 14.8C4.12562 14.0815 5.57998 13.5649 6.91831 13.25C8.25666 12.9352 9.61592 12.7779 10.9961 12.7779C12.3763 12.7779 13.7367 12.9352 15.0774 13.25C16.4182 13.5649 17.8663 14.0815 19.4219 14.8C20.1108 15.1334 20.6571 15.613 21.0608 16.2389C21.4645 16.8649 21.6663 17.563 21.6663 18.3334V20.5556C21.6663 20.8704 21.5599 21.1343 21.3469 21.3473C21.1339 21.5602 20.87 21.6667 20.5552 21.6667H1.44411ZM2.55521 19.4445H19.4441V18.3334C19.4441 18.0149 19.3645 17.7149 19.2052 17.4334C19.046 17.1519 18.8071 16.9408 18.4886 16.8C17.0515 16.0963 15.7626 15.6204 14.6219 15.3723C13.4812 15.1241 12.2737 15 10.9997 15C9.72561 15 8.5182 15.1278 7.37744 15.3834C6.23671 15.6389 4.94042 16.1112 3.48857 16.8C3.19966 16.9408 2.97187 17.1519 2.80521 17.4334C2.63854 17.7149 2.55521 18.0149 2.55521 18.3334V19.4445ZM10.9997 8.75562C11.8219 8.75562 12.5089 8.47969 13.0608 7.92785C13.6126 7.37598 13.8886 6.68894 13.8886 5.86672C13.8886 5.04449 13.6126 4.35746 13.0608 3.80562C12.5089 3.25375 11.8219 2.97782 10.9997 2.97782C10.1775 2.97782 9.49042 3.25375 8.93857 3.80562C8.38671 4.35746 8.11077 5.04449 8.11077 5.86672C8.11077 6.68894 8.38671 7.37598 8.93857 7.92785C9.49042 8.47969 10.1775 8.75562 10.9997 8.75562Z" fill="white"/>
</svg>
