<svg width="30" height="31" viewBox="0 0 30 31" fill="#000000" xmlns="http://www.w3.org/2000/svg">
<path d="M25.2273 3.46582H4.77273H4.5C3.39543 3.46582 2.5 4.36155 2.5 5.46612C2.5 5.64591 2.5 5.77328 2.5 5.80579V26.2603V26.4658C2.5 27.5704 3.39572 28.4658 4.50029 28.4658C4.64377 28.4658 4.74401 28.4658 4.77272 28.4658H25.2273C25.256 28.4658 25.3562 28.4658 25.4997 28.4658C26.6043 28.4658 27.5 27.5699 27.5 26.4653C27.5 26.3585 27.5 26.2846 27.5 26.2603V5.80576C27.5 5.77326 27.5 5.6459 27.5 5.46612C27.5 4.36155 26.6043 3.46582 25.4997 3.46582C25.3562 3.46582 25.256 3.46582 25.2273 3.46582ZM17.2727 26.2603H4.77273V17.1694H17.2727V26.2603ZM17.2727 14.8967H4.77273V5.80579L17.2727 5.80576V14.8967ZM25.2273 26.2603H19.5455V5.80579H25.2273V26.2603Z" fill="#CDCDCD"/>
</svg>
